# xmcd
# 
# Track frame offsets:
#     150
#     15605
#     31657
# 
# Disc length: 627
# 
# Revision: 1
# Processed by: cddbd v1.5.2PL0 Copyright (c) Steve Scherf et al.
# Submitted via: fre:ac v1.0.31
# 
DISCID=14027103
DTITLE=あいみょん - 満月の夜なら
DYEAR=2018
DGENRE=Schlager
TTITLE0=満月の夜なら
TTITLE1=わかってない
TTITLE2=　
EXTD=
EXTT0=
EXTT1=
EXTT2=
PLAYORDER=
